<svg id="svg" version="1.1" xmlns="http://www.w3.org/2000/svg" xmlns:xlink="http://www.w3.org/1999/xlink" width="400" height="300.1733102253033" viewBox="0, 0, 400,300.1733102253033"><g id="svgg"><path id="path0" d="M188.845 63.045 C 188.780 63.238,188.460 63.436,188.133 63.485 C 187.570 63.568,187.538 63.817,187.538 68.048 L 187.538 72.523 183.784 72.485 L 180.030 72.448 179.941 70.458 C 179.892 69.364,179.723 68.468,179.566 68.468 C 179.408 68.468,179.279 67.527,179.279 66.376 C 179.279 64.549,179.216 64.307,178.781 64.474 C 178.382 64.627,178.317 64.531,178.457 63.996 L 178.632 63.325 174.827 63.419 L 171.021 63.514 170.948 68.260 C 170.900 71.345,170.979 72.941,171.173 72.822 C 171.350 72.713,171.471 73.078,171.471 73.715 C 171.471 74.397,171.637 74.857,171.922 74.966 C 172.170 75.062,172.372 75.328,172.372 75.558 C 172.372 75.822,172.703 75.976,173.273 75.976 C 173.769 75.976,174.174 76.111,174.174 76.276 C 174.174 76.441,174.512 76.577,174.925 76.577 C 175.338 76.577,175.676 76.712,175.676 76.877 C 175.676 77.042,175.999 77.177,176.394 77.177 C 176.790 77.177,177.191 77.380,177.286 77.628 C 177.381 77.875,177.733 78.078,178.069 78.078 C 178.404 78.078,178.679 78.213,178.679 78.378 C 178.679 78.544,178.949 78.679,179.279 78.679 C 179.954 78.679,179.939 78.604,179.882 81.682 C 179.859 82.920,179.714 83.979,179.560 84.034 C 178.730 84.330,179.275 86.486,180.180 86.486 C 180.781 86.486,181.081 86.336,181.081 86.036 C 181.081 85.702,181.431 85.586,182.432 85.586 C 183.176 85.586,183.784 85.450,183.784 85.285 C 183.784 85.120,184.445 84.985,185.253 84.985 C 186.224 84.985,186.776 84.845,186.881 84.571 C 187.005 84.250,187.697 84.179,189.991 84.251 C 191.615 84.301,192.774 84.274,192.568 84.189 C 191.235 83.640,193.050 83.483,200.751 83.483 C 207.855 83.483,209.309 83.554,209.309 83.901 C 209.309 84.236,209.806 84.287,211.855 84.159 C 214.031 84.023,214.429 84.072,214.590 84.493 C 214.730 84.856,215.164 84.985,216.248 84.985 C 217.056 84.985,217.718 85.120,217.718 85.285 C 217.718 85.450,218.340 85.586,219.101 85.586 C 220.208 85.586,220.450 85.676,220.312 86.036 C 220.179 86.383,220.377 86.486,221.171 86.486 L 222.203 86.486 222.016 82.583 L 221.829 78.679 222.626 78.679 C 223.065 78.679,223.423 78.544,223.423 78.378 C 223.423 78.213,223.761 78.078,224.174 78.078 C 224.587 78.078,224.925 77.943,224.925 77.778 C 224.925 77.613,225.263 77.477,225.676 77.477 C 226.143 77.477,226.426 77.307,226.426 77.027 C 226.426 76.777,226.693 76.577,227.027 76.577 C 227.357 76.577,227.628 76.441,227.628 76.276 C 227.628 76.111,228.101 75.976,228.679 75.976 C 229.257 75.976,229.730 75.841,229.730 75.676 C 229.730 75.511,229.899 75.375,230.105 75.376 C 230.396 75.376,230.457 74.022,230.378 69.335 C 230.297 64.567,230.354 63.342,230.649 63.525 C 230.874 63.664,230.948 63.634,230.834 63.450 C 230.730 63.282,230.284 63.213,229.842 63.297 C 229.356 63.390,229.112 63.334,229.223 63.154 C 229.334 62.975,228.785 62.838,227.841 62.810 C 226.722 62.776,226.404 62.847,226.727 63.058 C 227.190 63.362,226.580 63.462,224.024 63.498 L 222.973 63.514 222.966 65.293 C 222.962 66.426,222.825 67.116,222.591 67.195 C 222.347 67.276,222.222 68.021,222.222 69.394 C 222.222 70.579,222.093 71.471,221.922 71.471 C 221.757 71.471,221.622 71.708,221.622 71.997 C 221.622 72.468,221.250 72.523,218.018 72.523 C 215.335 72.523,214.414 72.427,214.414 72.147 C 214.414 71.941,214.302 71.772,214.166 71.772 C 214.029 71.772,213.886 71.016,213.849 70.092 C 213.803 68.976,213.887 68.478,214.098 68.608 C 214.272 68.716,214.414 68.661,214.414 68.486 C 214.414 68.311,214.279 68.168,214.114 68.168 C 213.949 68.168,213.814 67.763,213.814 67.267 C 213.814 66.772,213.949 66.366,214.114 66.366 C 214.279 66.366,214.414 66.223,214.414 66.048 C 214.414 65.873,214.279 65.814,214.114 65.916 C 213.931 66.029,213.814 65.569,213.814 64.732 C 213.814 63.564,213.726 63.363,213.213 63.363 C 212.883 63.363,212.613 63.228,212.613 63.063 C 212.613 62.898,212.470 62.763,212.295 62.763 C 212.120 62.763,212.060 62.898,212.162 63.063 C 212.332 63.338,208.773 63.566,206.562 63.421 C 205.473 63.350,205.410 63.650,205.488 68.488 L 205.556 72.701 204.805 72.548 C 204.392 72.465,204.224 72.470,204.431 72.560 C 205.444 73.000,204.142 73.273,201.033 73.273 C 198.075 73.273,195.918 72.812,198.529 72.738 C 199.042 72.723,199.549 72.619,199.655 72.507 C 199.762 72.395,198.938 72.359,197.823 72.427 L 195.796 72.551 195.796 67.987 L 195.796 63.423 192.581 63.386 C 190.626 63.363,189.287 63.221,189.164 63.022 C 189.021 62.791,188.927 62.798,188.845 63.045 M174.474 82.537 C 174.474 82.677,174.048 82.804,173.528 82.818 C 173.007 82.833,172.488 82.996,172.374 83.180 C 172.260 83.364,172.044 83.492,171.894 83.464 C 171.030 83.301,170.270 83.536,170.270 83.966 C 170.270 84.267,170.104 84.385,169.829 84.279 C 169.586 84.186,169.190 84.307,168.949 84.547 C 168.708 84.788,168.299 84.985,168.039 84.985 C 167.780 84.985,167.568 85.126,167.568 85.298 C 167.568 85.471,167.399 85.590,167.192 85.563 C 166.402 85.461,166.066 85.602,166.066 86.036 C 166.066 86.319,165.780 86.486,165.298 86.486 C 164.862 86.486,164.609 86.616,164.715 86.787 C 164.820 86.957,164.568 87.087,164.132 87.087 C 163.709 87.087,163.363 87.228,163.363 87.401 C 163.363 87.573,163.194 87.692,162.988 87.665 C 161.993 87.536,161.587 87.705,161.767 88.173 C 161.916 88.562,161.810 88.622,161.232 88.476 C 160.835 88.376,160.679 88.371,160.886 88.466 C 161.421 88.712,161.353 89.289,160.814 89.082 C 160.561 88.985,160.045 89.231,159.626 89.650 C 159.219 90.057,158.610 90.390,158.272 90.390 C 157.926 90.390,157.658 90.587,157.658 90.841 C 157.658 91.091,157.391 91.291,157.057 91.291 C 156.727 91.291,156.456 91.426,156.456 91.592 C 156.456 91.757,156.254 91.892,156.006 91.892 C 155.758 91.892,155.556 92.027,155.556 92.192 C 155.556 92.357,155.295 92.492,154.976 92.492 C 154.658 92.492,154.195 92.695,153.947 92.943 C 153.699 93.191,153.381 93.393,153.241 93.393 C 153.100 93.393,152.791 93.664,152.553 93.994 C 152.314 94.324,151.947 94.595,151.736 94.595 C 151.524 94.595,151.351 94.736,151.351 94.909 C 151.351 95.311,149.973 96.697,149.574 96.697 C 149.407 96.697,149.109 97.001,148.912 97.372 C 148.715 97.744,148.305 98.267,148.001 98.534 C 147.697 98.801,147.447 99.188,147.447 99.395 C 147.447 99.632,147.174 99.718,146.706 99.628 C 146.298 99.550,146.021 99.578,146.090 99.690 C 146.214 99.890,145.196 100.901,144.870 100.901 C 144.634 100.901,143.844 101.717,143.844 101.960 C 143.844 102.071,143.424 102.553,142.911 103.033 C 142.398 103.512,142.128 103.904,142.311 103.904 C 142.493 103.904,142.643 104.039,142.643 104.204 C 142.643 104.369,142.502 104.505,142.331 104.505 C 141.834 104.505,139.640 106.811,139.640 107.334 C 139.640 107.595,139.505 107.808,139.339 107.808 C 139.174 107.808,139.039 107.953,139.039 108.130 C 139.039 108.475,138.301 109.309,137.996 109.309 C 137.552 109.309,136.336 110.839,136.336 111.398 C 136.336 111.736,136.192 112.012,136.015 112.012 C 135.528 112.012,134.835 112.806,134.835 113.363 C 134.835 113.635,134.638 114.054,134.397 114.294 C 134.156 114.535,134.036 114.931,134.129 115.174 C 134.237 115.454,134.115 115.616,133.796 115.616 C 133.430 115.616,133.345 115.779,133.483 116.216 C 133.619 116.642,133.537 116.817,133.203 116.817 C 132.928 116.817,132.733 117.074,132.733 117.439 C 132.733 118.121,132.079 118.919,131.520 118.919 C 131.292 118.919,131.233 119.187,131.355 119.670 C 131.494 120.224,131.423 120.420,131.087 120.420 C 130.800 120.420,130.631 120.700,130.631 121.171 C 130.631 121.584,130.495 121.922,130.330 121.922 C 130.165 121.922,130.030 122.192,130.030 122.523 C 130.030 122.853,129.895 123.123,129.730 123.123 C 129.565 123.123,129.429 123.461,129.429 123.874 C 129.429 124.287,129.275 124.625,129.087 124.625 C 128.485 124.625,127.947 125.642,127.937 126.802 C 127.932 127.421,127.793 127.928,127.628 127.928 C 127.462 127.928,127.327 128.266,127.327 128.679 C 127.327 129.464,126.886 129.700,126.625 129.054 C 126.542 128.848,126.463 129.321,126.450 130.105 C 126.437 130.890,126.291 131.532,126.126 131.532 C 125.961 131.532,125.826 132.215,125.826 133.051 C 125.826 133.987,125.711 134.499,125.526 134.384 C 125.340 134.270,125.225 134.792,125.225 135.750 C 125.225 137.067,125.150 137.273,124.731 137.112 C 124.294 136.944,124.259 137.133,124.430 138.763 C 124.593 140.323,124.554 140.578,124.173 140.431 C 123.803 140.289,123.724 140.601,123.724 142.202 C 123.724 143.296,123.593 144.144,123.423 144.144 C 123.244 144.144,123.123 145.295,123.123 146.997 C 123.123 149.339,123.042 149.850,122.670 149.850 C 122.280 149.850,122.225 150.728,122.268 156.278 C 122.309 161.512,122.393 162.678,122.721 162.553 C 123.040 162.430,123.123 162.996,123.123 165.283 C 123.123 167.006,123.244 168.168,123.423 168.168 C 123.590 168.168,123.724 168.972,123.724 169.979 C 123.724 171.296,123.844 171.837,124.165 171.960 C 124.495 172.087,124.576 172.498,124.484 173.586 C 124.386 174.761,124.445 175.010,124.794 174.876 C 125.099 174.759,125.225 174.933,125.225 175.468 C 125.225 175.885,125.056 176.294,124.850 176.378 C 124.550 176.499,124.550 176.534,124.850 176.553 C 125.056 176.566,125.225 176.922,125.225 177.345 C 125.225 177.781,125.355 178.033,125.526 177.928 C 125.713 177.812,125.826 178.425,125.826 179.562 C 125.826 180.575,125.959 181.381,126.126 181.381 C 126.291 181.381,126.426 181.652,126.426 181.982 C 126.426 182.316,126.627 182.583,126.877 182.583 C 127.191 182.583,127.327 182.900,127.327 183.634 C 127.327 184.212,127.462 184.685,127.628 184.685 C 127.793 184.685,127.928 185.023,127.928 185.435 C 127.928 185.848,128.063 186.186,128.228 186.186 C 128.393 186.186,128.529 186.524,128.529 186.937 C 128.529 187.404,128.699 187.688,128.979 187.688 C 129.288 187.688,129.429 187.997,129.429 188.672 C 129.429 189.313,129.640 189.809,130.030 190.090 C 130.360 190.328,130.631 190.763,130.631 191.057 C 130.631 191.351,130.849 191.592,131.115 191.592 C 131.479 191.592,131.568 191.808,131.472 192.461 C 131.380 193.091,131.453 193.289,131.738 193.180 C 131.982 193.086,132.132 193.257,132.132 193.629 C 132.132 193.960,132.333 194.307,132.578 194.401 C 132.831 194.498,132.947 194.771,132.846 195.034 C 132.732 195.331,132.840 195.495,133.151 195.495 C 133.416 195.495,133.634 195.698,133.634 195.946 C 133.634 196.194,133.769 196.396,133.934 196.396 C 134.099 196.396,134.234 196.734,134.234 197.147 C 134.234 197.560,134.369 197.898,134.535 197.898 C 134.700 197.898,134.835 198.149,134.835 198.456 C 134.835 198.764,135.173 199.269,135.586 199.579 C 135.998 199.889,136.336 200.381,136.336 200.672 C 136.336 200.963,136.471 201.201,136.637 201.201 C 136.802 201.201,136.937 201.404,136.937 201.652 C 136.937 201.899,137.082 202.102,137.259 202.102 C 137.745 202.102,138.438 202.896,138.438 203.453 C 138.438 203.939,139.112 204.805,139.489 204.805 C 139.801 204.805,140.541 205.635,140.541 205.985 C 140.541 206.162,140.676 206.306,140.841 206.306 C 141.006 206.306,141.141 206.644,141.141 207.057 C 141.141 207.777,141.402 207.947,142.308 207.821 C 142.572 207.784,142.658 207.935,142.543 208.236 C 142.428 208.534,142.524 208.709,142.802 208.709 C 143.045 208.709,143.243 208.840,143.243 209.000 C 143.243 209.312,147.627 213.814,147.931 213.814 C 148.030 213.814,148.378 214.152,148.702 214.565 C 149.027 214.977,149.486 215.315,149.721 215.315 C 149.957 215.315,150.150 215.450,150.150 215.616 C 150.150 215.781,150.295 215.916,150.472 215.916 C 151.010 215.916,151.720 216.805,151.546 217.260 C 151.437 217.543,151.529 217.631,151.817 217.520 C 152.056 217.428,152.252 217.503,152.252 217.686 C 152.252 217.868,152.534 218.018,152.878 218.018 C 153.222 218.018,153.963 218.491,154.524 219.069 C 155.086 219.647,155.701 220.120,155.891 220.120 C 156.082 220.120,156.551 220.458,156.933 220.871 C 157.316 221.284,157.838 221.622,158.094 221.622 C 158.349 221.622,158.559 221.757,158.559 221.922 C 158.559 222.087,158.761 222.222,159.009 222.222 C 159.257 222.222,159.459 222.357,159.459 222.523 C 159.459 222.688,159.730 222.823,160.060 222.823 C 160.390 222.823,160.661 222.968,160.661 223.145 C 160.661 223.675,161.476 224.324,162.141 224.324 C 162.483 224.324,162.763 224.459,162.763 224.625 C 162.763 224.790,163.101 224.925,163.514 224.925 C 163.981 224.925,164.264 225.095,164.264 225.375 C 164.264 225.793,164.785 225.966,165.691 225.848 C 165.897 225.821,166.066 225.941,166.066 226.113 C 166.066 226.285,166.404 226.426,166.817 226.426 C 167.230 226.426,167.568 226.562,167.568 226.727 C 167.568 226.892,167.891 227.027,168.286 227.027 C 168.681 227.027,169.083 227.230,169.178 227.477 C 169.273 227.725,169.557 227.928,169.810 227.928 C 170.063 227.928,170.270 228.063,170.270 228.228 C 170.270 228.393,170.676 228.529,171.171 228.529 C 171.667 228.529,172.072 228.664,172.072 228.829 C 172.072 228.994,172.463 229.129,172.941 229.129 C 173.419 229.129,173.881 229.315,173.968 229.542 C 174.069 229.804,174.409 229.902,174.898 229.808 C 175.427 229.707,175.726 229.813,175.854 230.146 C 175.975 230.460,176.398 230.631,177.059 230.631 C 177.620 230.631,178.078 230.766,178.078 230.931 C 178.078 231.096,178.551 231.231,179.129 231.231 C 179.882 231.231,180.180 231.364,180.180 231.700 C 180.180 232.088,180.422 232.133,181.580 231.959 C 182.801 231.776,182.955 231.812,182.790 232.241 C 182.628 232.663,182.857 232.733,184.394 232.733 C 185.389 232.733,186.186 232.866,186.186 233.033 C 186.186 233.203,187.043 233.333,188.156 233.333 C 189.393 233.333,190.056 233.445,189.940 233.634 C 189.818 233.832,193.490 233.934,200.733 233.934 C 207.852 233.934,211.712 233.828,211.712 233.634 C 211.712 233.467,212.513 233.333,213.514 233.333 C 214.515 233.333,215.315 233.200,215.315 233.033 C 215.315 232.868,216.059 232.733,216.967 232.733 C 218.142 232.733,218.619 232.617,218.619 232.333 C 218.619 232.034,219.058 231.958,220.345 232.031 C 221.295 232.086,221.903 232.052,221.697 231.956 C 220.971 231.619,221.333 231.231,222.372 231.231 C 222.950 231.231,223.423 231.096,223.423 230.931 C 223.423 230.766,223.896 230.631,224.474 230.631 C 225.246 230.631,225.526 230.500,225.526 230.141 C 225.526 229.749,225.735 229.685,226.577 229.822 C 227.369 229.950,227.628 229.886,227.628 229.561 C 227.628 229.281,227.945 229.129,228.529 229.129 C 229.024 229.129,229.429 228.994,229.429 228.829 C 229.429 228.664,229.753 228.529,230.148 228.529 C 230.543 228.529,230.940 228.336,231.031 228.101 C 231.131 227.840,231.435 227.737,231.813 227.836 C 232.250 227.950,232.432 227.855,232.432 227.513 C 232.432 227.195,232.692 227.027,233.183 227.027 C 233.596 227.027,233.934 226.877,233.934 226.695 C 233.934 226.512,234.142 226.442,234.396 226.539 C 234.659 226.640,234.931 226.525,235.028 226.271 C 235.133 225.999,235.595 225.826,236.218 225.826 C 236.924 225.826,237.237 225.687,237.237 225.375 C 237.237 225.107,237.513 224.925,237.922 224.925 C 238.298 224.925,238.801 224.655,239.039 224.324 C 239.277 223.994,239.780 223.724,240.156 223.724 C 240.565 223.724,240.841 223.542,240.841 223.273 C 240.841 223.023,241.108 222.823,241.441 222.823 C 241.772 222.823,242.042 222.688,242.042 222.523 C 242.042 222.357,242.245 222.222,242.492 222.222 C 242.740 222.222,242.943 222.087,242.943 221.922 C 242.943 221.757,243.289 221.622,243.711 221.622 C 244.147 221.622,244.400 221.492,244.294 221.321 C 244.129 221.054,244.514 220.893,245.109 220.982 C 245.227 220.999,245.247 220.813,245.152 220.567 C 245.041 220.278,245.164 220.120,245.499 220.120 C 245.785 220.120,246.601 219.512,247.313 218.769 C 248.025 218.026,248.864 217.417,249.178 217.417 C 249.492 217.417,249.929 217.080,250.150 216.667 C 250.371 216.254,250.732 215.916,250.952 215.916 C 251.171 215.916,251.351 215.781,251.351 215.616 C 251.351 215.450,251.535 215.315,251.760 215.315 C 251.984 215.315,252.422 214.977,252.732 214.565 C 253.042 214.152,253.417 213.814,253.565 213.814 C 253.872 213.814,255.254 212.278,255.255 211.937 C 255.255 211.813,255.400 211.712,255.577 211.712 C 255.993 211.712,256.757 210.948,256.757 210.532 C 256.757 210.355,256.892 210.210,257.057 210.210 C 257.222 210.210,257.357 209.972,257.357 209.681 C 257.357 209.391,257.775 208.816,258.286 208.405 C 259.777 207.205,260.961 206.081,260.961 205.865 C 260.961 205.755,261.434 205.219,262.012 204.674 C 262.590 204.129,263.063 203.524,263.063 203.329 C 263.063 203.135,263.401 202.638,263.814 202.225 C 264.227 201.812,264.565 201.337,264.565 201.170 C 264.565 201.002,264.700 200.949,264.865 201.051 C 265.035 201.156,265.165 200.904,265.165 200.468 C 265.165 200.046,265.300 199.700,265.465 199.700 C 265.631 199.700,265.766 199.487,265.766 199.228 C 265.766 198.688,266.467 197.898,266.946 197.898 C 267.122 197.898,267.267 197.560,267.267 197.147 C 267.267 196.734,267.402 196.396,267.568 196.396 C 267.733 196.396,267.868 196.194,267.868 195.946 C 267.868 195.698,268.066 195.495,268.309 195.495 C 268.576 195.495,268.682 195.319,268.578 195.048 C 268.480 194.792,268.613 194.520,268.888 194.415 C 269.153 194.313,269.369 193.974,269.369 193.662 C 269.369 193.349,269.505 193.093,269.670 193.093 C 269.835 193.093,269.970 192.755,269.970 192.342 C 269.970 191.929,270.105 191.592,270.270 191.592 C 270.435 191.592,270.571 191.307,270.571 190.959 C 270.571 190.520,270.708 190.379,271.021 190.499 C 271.295 190.604,271.471 190.499,271.471 190.231 C 271.471 189.988,271.578 189.790,271.708 189.790 C 271.838 189.790,271.977 189.351,272.018 188.814 C 272.058 188.277,272.222 187.793,272.382 187.738 C 272.542 187.683,272.673 187.311,272.673 186.912 C 272.673 186.467,272.847 186.186,273.123 186.186 C 273.438 186.186,273.574 185.869,273.574 185.135 C 273.574 184.557,273.709 184.084,273.874 184.084 C 274.039 184.084,274.174 183.611,274.174 183.033 C 274.174 182.455,274.309 181.982,274.474 181.982 C 274.640 181.982,274.775 181.495,274.775 180.899 C 274.775 180.041,274.872 179.853,275.243 179.995 C 275.642 180.148,275.682 179.974,275.510 178.830 C 275.347 177.745,275.402 177.448,275.792 177.299 C 276.123 177.172,276.276 176.742,276.276 175.944 C 276.276 175.301,276.411 174.775,276.577 174.775 C 276.742 174.775,276.877 174.099,276.877 173.273 C 276.877 172.447,277.012 171.772,277.177 171.772 C 277.344 171.772,277.477 170.968,277.477 169.961 C 277.477 168.681,277.602 168.102,277.900 167.987 C 278.219 167.865,278.316 167.208,278.297 165.287 C 278.281 163.708,278.405 162.616,278.625 162.396 C 279.070 161.951,279.084 156.517,278.651 152.553 C 278.480 150.983,278.219 148.619,278.072 147.297 C 277.797 144.839,277.184 141.263,276.578 138.589 C 276.391 137.763,276.163 136.714,276.072 136.258 C 275.981 135.801,275.787 135.354,275.641 135.264 C 275.495 135.174,275.375 134.646,275.375 134.091 C 275.375 133.537,275.232 133.035,275.058 132.977 C 274.883 132.919,274.587 131.860,274.401 130.625 C 274.214 129.389,273.884 128.270,273.667 128.138 C 273.451 128.006,273.273 127.567,273.273 127.162 C 273.273 126.758,273.138 126.426,272.973 126.426 C 272.808 126.426,272.673 126.100,272.673 125.701 C 272.673 125.302,272.571 124.930,272.447 124.875 C 272.121 124.730,271.171 122.849,271.171 122.348 C 271.171 122.114,271.036 121.922,270.871 121.922 C 270.706 121.922,270.571 121.740,270.571 121.518 C 270.571 120.916,269.668 119.219,269.347 119.219 C 269.194 119.219,269.069 119.017,269.069 118.769 C 269.069 118.521,268.934 118.318,268.769 118.318 C 268.604 118.318,268.465 118.149,268.461 117.943 C 268.458 117.736,267.782 116.569,266.960 115.349 C 266.138 114.129,265.465 113.030,265.465 112.906 C 265.465 112.400,264.568 111.009,263.474 109.821 C 262.835 109.127,261.737 107.786,261.034 106.841 C 260.330 105.897,259.242 104.601,258.615 103.962 C 257.988 103.322,257.531 102.632,257.599 102.428 C 257.754 101.962,256.643 100.901,256.001 100.901 C 255.736 100.901,255.604 100.766,255.706 100.601 C 255.808 100.435,255.599 100.300,255.241 100.300 C 254.796 100.300,254.643 100.163,254.757 99.865 C 254.869 99.574,254.780 99.485,254.489 99.597 C 254.220 99.700,254.054 99.579,254.054 99.281 C 254.054 99.016,253.931 98.799,253.780 98.799 C 253.630 98.799,252.745 98.056,251.815 97.147 C 250.885 96.239,249.931 95.495,249.696 95.495 C 249.420 95.495,249.336 95.318,249.460 94.996 C 249.593 94.650,249.539 94.566,249.284 94.723 C 248.906 94.957,247.147 93.371,247.147 92.796 C 247.147 92.629,246.861 92.492,246.512 92.492 C 246.162 92.492,245.412 91.987,244.843 91.366 C 244.274 90.747,243.898 90.477,244.008 90.766 C 244.124 91.070,244.069 91.291,243.876 91.291 C 243.693 91.291,243.544 91.073,243.544 90.806 C 243.544 90.468,243.361 90.368,242.943 90.477 C 242.292 90.648,242.103 90.237,242.718 89.989 C 242.924 89.905,242.721 89.827,242.267 89.813 C 241.813 89.800,241.441 89.655,241.441 89.489 C 241.441 89.324,241.171 89.189,240.841 89.189 C 240.511 89.189,240.240 89.035,240.240 88.847 C 240.240 88.429,239.336 87.710,238.792 87.697 C 238.574 87.692,238.199 87.491,237.958 87.250 C 237.717 87.009,237.321 86.889,237.078 86.982 C 236.835 87.075,236.637 87.002,236.637 86.819 C 236.637 86.636,236.366 86.486,236.036 86.486 C 235.702 86.486,235.435 86.286,235.435 86.036 C 235.435 85.756,235.152 85.586,234.685 85.586 C 234.272 85.586,233.934 85.450,233.934 85.285 C 233.934 85.120,233.596 84.985,233.183 84.985 C 232.770 84.985,232.432 84.850,232.432 84.685 C 232.432 84.520,232.177 84.384,231.864 84.384 C 231.551 84.384,231.212 84.167,231.110 83.900 C 230.977 83.554,230.661 83.455,229.999 83.552 C 229.399 83.640,229.019 83.546,228.919 83.285 C 228.832 83.058,228.320 82.883,227.746 82.883 C 227.185 82.883,226.727 82.748,226.727 82.583 C 226.727 82.417,226.321 82.282,225.826 82.282 C 224.945 82.282,224.925 82.316,224.925 83.784 C 224.925 84.962,225.029 85.285,225.407 85.285 C 225.788 85.285,225.865 85.536,225.774 86.486 L 225.660 87.688 226.794 87.688 C 227.418 87.688,227.928 87.823,227.928 87.988 C 227.928 88.153,228.223 88.288,228.584 88.288 C 229.170 88.288,230.767 89.045,237.545 92.535 C 240.110 93.855,245.722 97.808,247.609 99.623 C 248.428 100.411,249.640 101.457,250.300 101.946 C 251.684 102.971,255.243 106.564,256.403 108.108 C 256.838 108.686,257.767 109.811,258.468 110.608 C 260.127 112.494,264.676 119.330,265.411 121.040 C 265.725 121.773,266.734 123.928,267.653 125.830 C 269.773 130.222,270.992 133.713,270.746 134.692 C 270.609 135.239,270.680 135.435,271.015 135.435 C 271.347 135.435,271.471 135.762,271.471 136.637 C 271.471 137.297,271.607 137.838,271.772 137.838 C 271.937 137.838,272.072 138.450,272.072 139.199 C 272.072 140.178,272.209 140.612,272.560 140.747 C 272.965 140.902,273.017 141.235,272.865 142.689 C 272.715 144.124,272.763 144.444,273.128 144.444 C 273.496 144.444,273.574 145.044,273.574 147.898 C 273.574 150.000,273.691 151.351,273.874 151.351 C 274.061 151.351,274.174 153.097,274.174 155.988 C 274.174 158.756,274.053 160.700,273.874 160.811 C 273.702 160.917,273.574 162.466,273.574 164.432 C 273.574 167.363,273.504 167.868,273.099 167.868 C 272.694 167.868,272.655 168.153,272.834 169.820 C 273.014 171.503,272.976 171.772,272.558 171.772 C 272.191 171.772,272.072 172.067,272.072 172.973 C 272.072 173.634,271.937 174.174,271.772 174.174 C 271.607 174.174,271.471 174.366,271.471 174.600 C 271.471 174.834,271.303 175.093,271.096 175.176 C 270.796 175.298,270.796 175.333,271.096 175.352 C 271.638 175.386,271.562 176.577,271.017 176.577 C 270.656 176.577,270.603 176.821,270.756 177.778 C 270.884 178.583,270.836 178.979,270.609 178.979 C 270.423 178.979,270.270 179.294,270.270 179.680 C 270.270 180.724,267.575 187.244,266.215 189.489 C 265.865 190.068,265.393 191.014,265.166 191.592 C 264.678 192.837,261.371 198.152,260.683 198.799 C 260.419 199.047,259.807 199.790,259.322 200.450 C 258.837 201.111,258.357 201.719,258.254 201.802 C 258.152 201.884,257.653 202.562,257.146 203.308 C 254.786 206.778,245.204 215.406,241.973 216.970 C 241.192 217.348,240.043 218.052,239.420 218.535 C 237.867 219.737,236.743 220.383,232.733 222.371 C 230.833 223.313,229.031 224.213,228.729 224.372 C 228.426 224.531,227.784 224.575,227.302 224.469 C 226.610 224.317,226.426 224.381,226.426 224.774 C 226.426 225.172,226.176 225.253,225.173 225.181 C 224.380 225.123,223.874 225.225,223.796 225.458 C 223.729 225.660,223.212 225.826,222.648 225.826 C 222.083 225.826,221.622 225.961,221.622 226.126 C 221.622 226.291,221.149 226.426,220.571 226.426 C 219.818 226.426,219.520 226.560,219.520 226.895 C 219.520 227.281,219.279 227.328,218.168 227.161 C 217.041 226.992,216.817 227.039,216.817 227.443 C 216.817 227.831,216.485 227.928,215.165 227.928 C 214.257 227.928,213.514 228.063,213.514 228.228 C 213.514 228.400,212.599 228.529,211.369 228.529 C 209.674 228.529,209.145 228.639,208.841 229.054 C 208.263 229.844,192.927 229.830,192.349 229.039 C 192.058 228.641,191.502 228.529,189.832 228.529 C 188.603 228.529,187.688 228.400,187.688 228.228 C 187.688 228.063,187.012 227.928,186.186 227.928 C 185.106 227.928,184.685 227.811,184.685 227.512 C 184.685 227.015,183.113 226.724,182.445 227.098 C 182.120 227.280,181.921 227.217,181.797 226.894 C 181.676 226.580,181.227 226.426,180.431 226.426 C 179.716 226.426,179.318 226.307,179.429 226.126 C 179.540 225.948,179.185 225.826,178.556 225.826 C 177.692 225.826,177.532 225.734,177.687 225.328 C 177.854 224.893,177.704 224.853,176.505 225.018 C 175.449 225.163,175.093 225.104,174.963 224.765 C 174.866 224.512,174.407 224.324,173.883 224.324 C 173.383 224.324,172.973 224.208,172.973 224.065 C 172.973 223.922,172.345 223.719,171.577 223.614 C 170.809 223.509,170.032 223.303,169.850 223.156 C 169.668 223.010,168.506 222.352,167.267 221.694 C 162.613 219.222,160.787 218.052,160.270 217.209 C 160.138 216.993,159.834 216.817,159.595 216.817 C 159.355 216.817,159.159 216.682,159.159 216.517 C 159.159 216.351,158.956 216.216,158.709 216.216 C 158.461 216.216,158.258 216.014,158.258 215.766 C 158.258 215.516,157.991 215.315,157.658 215.315 C 157.327 215.315,157.057 215.180,157.057 215.015 C 157.057 214.850,156.854 214.715,156.607 214.715 C 156.359 214.715,156.156 214.570,156.156 214.393 C 156.156 213.912,155.365 213.213,154.821 213.213 C 154.161 213.213,150.683 209.661,150.939 209.248 C 151.063 209.047,151.006 209.001,150.795 209.132 C 150.600 209.252,150.367 209.141,150.266 208.878 C 150.167 208.620,149.890 208.408,149.650 208.408 C 149.410 208.408,149.297 208.273,149.399 208.108 C 149.501 207.943,149.374 207.808,149.117 207.808 C 148.859 207.808,148.648 207.706,148.648 207.583 C 148.648 207.199,147.247 205.706,146.887 205.706 C 146.700 205.706,146.547 205.533,146.547 205.322 C 146.547 205.110,146.276 204.743,145.946 204.505 C 145.616 204.266,145.345 203.891,145.345 203.670 C 145.345 203.449,145.209 203.352,145.043 203.455 C 144.601 203.728,143.844 202.855,143.844 202.074 C 143.844 201.704,143.765 201.480,143.669 201.577 C 143.414 201.832,142.342 200.680,142.342 200.150 C 142.342 199.902,142.207 199.700,142.042 199.700 C 141.877 199.700,141.742 199.497,141.742 199.249 C 141.742 199.002,141.597 198.799,141.420 198.799 C 141.004 198.799,140.240 198.035,140.240 197.619 C 140.240 197.442,140.105 197.297,139.940 197.297 C 139.775 197.297,139.637 197.128,139.634 196.922 C 139.632 196.715,139.294 196.228,138.884 195.839 C 138.474 195.450,138.138 194.990,138.138 194.817 C 138.138 194.643,137.800 194.058,137.387 193.517 C 136.974 192.975,136.637 192.388,136.637 192.212 C 136.637 192.036,136.535 191.890,136.411 191.887 C 136.194 191.882,135.286 190.074,133.926 186.937 C 132.883 184.532,132.390 183.399,131.935 182.364 C 131.349 181.030,130.616 179.009,130.326 177.928 C 130.193 177.432,129.785 175.946,129.421 174.625 C 128.742 172.165,128.381 170.033,127.971 166.066 C 127.843 164.827,127.578 163.519,127.383 163.158 C 126.848 162.172,126.907 149.883,127.449 149.168 C 127.710 148.825,127.813 148.067,127.741 147.027 C 127.675 146.079,127.814 144.893,128.079 144.142 C 128.326 143.441,128.529 142.461,128.529 141.964 C 128.529 141.467,128.674 140.504,128.853 139.825 C 129.031 139.145,129.319 138.048,129.494 137.387 C 129.977 135.555,131.235 131.746,131.551 131.160 C 131.705 130.873,131.832 130.490,131.832 130.309 C 131.832 130.127,132.305 129.019,132.883 127.845 C 133.461 126.672,133.934 125.535,133.934 125.318 C 133.934 125.102,134.036 124.925,134.161 124.925 C 134.286 124.925,134.567 124.351,134.785 123.649 C 135.227 122.227,136.055 120.351,136.342 120.120 C 136.444 120.038,137.393 118.619,138.450 116.967 C 139.506 115.315,140.443 113.896,140.531 113.814 C 140.619 113.731,141.665 112.380,142.856 110.811 C 146.111 106.523,151.346 101.373,156.156 97.726 C 157.230 96.912,158.153 96.145,158.208 96.021 C 158.263 95.897,158.444 95.796,158.609 95.796 C 158.774 95.796,159.675 95.208,160.611 94.490 C 161.547 93.771,162.785 93.005,163.363 92.787 C 163.941 92.569,164.994 92.076,165.701 91.691 C 166.409 91.306,167.186 90.991,167.428 90.991 C 167.670 90.991,167.868 90.856,167.868 90.691 C 167.868 90.526,168.092 90.390,168.365 90.390 C 168.638 90.390,169.305 90.053,169.847 89.640 C 170.388 89.227,171.110 88.889,171.451 88.889 C 171.793 88.889,172.072 88.754,172.072 88.589 C 172.072 88.423,172.410 88.288,172.823 88.288 C 173.236 88.288,173.574 88.153,173.574 87.988 C 173.574 87.823,174.047 87.688,174.625 87.688 C 175.203 87.688,175.676 87.538,175.676 87.355 C 175.676 87.172,175.845 87.088,176.052 87.167 C 176.303 87.264,176.427 87.001,176.427 86.373 C 176.427 85.783,176.565 85.463,176.802 85.511 C 177.066 85.563,177.177 85.095,177.177 83.934 L 177.177 82.282 175.826 82.282 C 175.083 82.282,174.474 82.397,174.474 82.537 M197.447 85.285 C 197.345 85.450,196.054 85.586,194.577 85.586 C 192.514 85.586,191.892 85.680,191.892 85.994 C 191.892 86.295,191.325 86.416,189.725 86.457 C 188.533 86.487,187.485 86.618,187.397 86.747 C 187.309 86.877,186.426 87.017,185.435 87.058 C 184.444 87.099,183.589 87.258,183.534 87.410 C 183.478 87.563,182.972 87.688,182.407 87.688 C 181.843 87.688,181.381 87.823,181.381 87.988 C 181.381 88.153,181.044 88.288,180.631 88.288 C 180.035 88.288,179.880 88.440,179.880 89.021 C 179.880 89.424,179.745 89.838,179.580 89.940 C 179.394 90.055,179.279 92.696,179.279 96.865 L 179.279 103.604 180.631 103.604 C 181.374 103.604,181.982 103.468,181.982 103.303 C 181.982 103.138,182.590 103.003,183.333 103.003 C 184.077 103.003,184.685 102.868,184.685 102.703 C 184.685 102.538,185.217 102.402,185.868 102.402 C 186.519 102.402,187.148 102.246,187.266 102.056 C 187.399 101.841,187.348 101.791,187.133 101.923 C 186.943 102.041,186.787 101.994,186.787 101.820 C 186.787 101.643,187.387 101.502,188.138 101.502 C 188.881 101.502,189.489 101.366,189.489 101.201 C 189.489 101.036,189.633 100.901,189.808 100.901 C 189.982 100.901,190.034 101.050,189.921 101.231 C 189.773 101.471,189.886 101.471,190.334 101.231 C 190.674 101.050,191.240 100.901,191.593 100.901 C 193.187 100.901,193.093 97.356,193.093 157.576 C 193.093 201.276,193.173 213.473,193.462 213.762 C 193.728 214.028,193.832 215.814,193.837 220.203 L 193.844 226.276 194.595 226.355 C 197.852 226.698,203.136 226.738,204.860 226.433 L 206.868 226.079 207.055 223.024 C 207.157 221.344,207.304 207.301,207.380 191.817 C 207.502 167.223,207.576 163.664,207.964 163.664 C 208.353 163.664,208.408 160.121,208.408 135.117 C 208.408 114.857,208.502 106.629,208.731 106.770 C 208.954 106.908,209.023 106.129,208.956 104.235 C 208.870 101.812,208.918 101.500,209.375 101.501 C 209.710 101.501,209.830 101.659,209.718 101.952 C 209.574 102.328,209.925 102.402,211.847 102.402 C 213.306 102.402,214.082 102.512,213.964 102.703 C 213.803 102.962,215.819 103.179,217.019 103.031 C 217.213 103.007,217.458 103.126,217.563 103.295 C 217.667 103.465,218.759 103.604,219.988 103.604 L 222.222 103.604 222.222 96.547 C 222.222 90.738,222.149 89.489,221.807 89.489 C 221.578 89.489,221.323 89.228,221.239 88.908 C 221.130 88.489,220.911 88.373,220.454 88.493 C 220.002 88.611,219.820 88.519,219.820 88.173 C 219.820 87.798,219.513 87.688,218.468 87.688 C 217.725 87.688,217.117 87.553,217.117 87.387 C 217.117 87.222,216.374 87.087,215.465 87.087 C 214.557 87.087,213.814 86.952,213.814 86.787 C 213.814 86.622,213.082 86.486,212.187 86.486 C 211.293 86.486,210.513 86.344,210.455 86.170 C 210.295 85.690,209.641 85.636,203.303 85.579 C 199.867 85.548,197.758 85.426,198.198 85.285 C 198.897 85.061,198.903 85.043,198.291 85.015 C 197.929 84.998,197.550 85.120,197.447 85.285 M171.006 92.167 C 170.849 92.318,170.383 92.490,169.970 92.549 C 169.549 92.610,169.255 92.829,169.302 93.047 C 169.347 93.262,169.257 93.359,169.101 93.263 C 168.945 93.166,168.613 93.292,168.364 93.541 C 168.115 93.790,167.631 93.994,167.289 93.994 C 166.947 93.994,166.667 94.129,166.667 94.294 C 166.667 94.459,166.363 94.605,165.991 94.618 C 165.619 94.631,165.484 94.710,165.691 94.793 C 166.337 95.054,166.101 95.495,165.315 95.495 C 164.902 95.495,164.565 95.631,164.565 95.796 C 164.565 95.961,164.294 96.096,163.964 96.096 C 163.634 96.096,163.363 96.231,163.363 96.396 C 163.363 96.562,162.992 96.707,162.538 96.720 C 162.083 96.733,161.881 96.812,162.087 96.896 C 162.294 96.979,162.462 97.185,162.462 97.354 C 162.462 97.524,162.287 97.594,162.071 97.512 C 161.856 97.429,161.369 97.685,160.989 98.080 C 160.609 98.475,160.113 98.799,159.888 98.799 C 159.628 98.799,159.549 98.983,159.671 99.301 C 159.819 99.685,159.743 99.757,159.350 99.607 C 159.030 99.484,158.772 99.578,158.665 99.855 C 158.571 100.100,158.231 100.300,157.908 100.300 C 157.586 100.300,157.405 100.435,157.508 100.601 C 157.610 100.766,157.407 100.901,157.057 100.901 C 156.707 100.901,156.505 101.036,156.607 101.201 C 156.709 101.366,156.514 101.502,156.174 101.502 C 155.834 101.502,155.556 101.674,155.556 101.886 C 155.556 102.097,155.285 102.465,154.955 102.703 C 154.625 102.941,154.354 103.323,154.354 103.552 C 154.354 103.847,154.134 103.914,153.604 103.781 C 153.050 103.642,152.853 103.712,152.853 104.048 C 152.853 104.299,152.718 104.505,152.553 104.505 C 152.387 104.505,152.252 104.775,152.252 105.105 C 152.252 105.771,151.793 105.916,151.538 105.330 C 151.449 105.124,151.448 105.309,151.536 105.742 C 151.671 106.400,151.570 106.562,150.924 106.724 C 150.498 106.831,150.150 107.096,150.150 107.312 C 150.150 107.529,149.812 107.887,149.399 108.108 C 148.986 108.329,148.649 108.628,148.649 108.773 C 148.649 109.142,147.241 110.511,146.860 110.511 C 146.688 110.511,146.547 110.713,146.547 110.961 C 146.547 111.209,146.411 111.411,146.246 111.411 C 146.081 111.411,145.946 111.682,145.946 112.012 C 145.946 112.342,145.811 112.613,145.646 112.613 C 145.480 112.613,145.345 112.815,145.345 113.063 C 145.345 113.311,145.192 113.514,145.005 113.514 C 144.443 113.514,143.568 114.729,143.763 115.239 C 143.884 115.554,143.827 115.641,143.595 115.497 C 143.384 115.367,143.243 115.467,143.243 115.748 C 143.243 116.006,143.026 116.216,142.760 116.216 C 142.389 116.216,142.323 116.398,142.475 117.005 C 142.634 117.639,142.582 117.759,142.207 117.615 C 141.917 117.504,141.742 117.602,141.742 117.877 C 141.742 118.120,141.607 118.318,141.441 118.318 C 141.276 118.318,141.141 118.671,141.141 119.101 C 141.141 119.698,141.026 119.840,140.657 119.698 C 140.311 119.566,140.223 119.642,140.348 119.967 C 140.454 120.245,140.351 120.420,140.081 120.420 C 139.649 120.420,139.513 120.765,139.624 121.577 C 139.655 121.800,139.536 121.893,139.359 121.784 C 139.164 121.664,139.039 121.887,139.039 122.355 C 139.039 122.777,138.904 123.123,138.739 123.123 C 138.574 123.123,138.438 123.461,138.438 123.874 C 138.438 124.341,138.268 124.625,137.988 124.625 C 137.738 124.625,137.538 124.892,137.538 125.225 C 137.538 125.556,137.402 125.826,137.237 125.826 C 137.072 125.826,136.937 126.164,136.937 126.577 C 136.937 126.989,136.802 127.327,136.637 127.327 C 136.471 127.327,136.336 127.665,136.336 128.078 C 136.336 128.545,136.166 128.829,135.886 128.829 C 135.603 128.829,135.435 129.114,135.435 129.597 C 135.435 130.033,135.305 130.285,135.135 130.180 C 134.970 130.078,134.832 130.104,134.828 130.238 C 134.764 132.386,134.490 134.935,134.278 135.353 C 133.849 136.196,133.030 138.840,133.032 139.378 C 133.032 139.646,132.830 140.035,132.583 140.240 C 132.292 140.481,132.132 141.147,132.132 142.111 C 132.132 143.294,132.041 143.573,131.697 143.441 C 131.332 143.301,131.289 143.660,131.426 145.682 C 131.566 147.751,131.515 148.144,131.062 148.476 C 130.466 148.911,130.637 161.903,131.242 162.112 C 131.401 162.167,131.532 163.255,131.532 164.530 C 131.532 165.804,131.676 166.991,131.852 167.168 C 132.029 167.344,132.288 168.216,132.428 169.105 C 132.568 169.993,133.042 172.005,133.482 173.574 C 133.922 175.143,134.528 177.372,134.828 178.529 C 135.362 180.585,135.699 181.486,137.075 184.535 C 137.448 185.360,137.934 186.577,138.157 187.237 C 138.379 187.898,138.669 188.567,138.800 188.724 C 138.931 188.881,139.039 189.191,139.039 189.414 C 139.039 189.636,139.388 190.142,139.815 190.538 C 140.369 191.051,140.536 191.434,140.396 191.873 C 140.245 192.350,140.307 192.448,140.671 192.308 C 140.973 192.192,141.141 192.295,141.141 192.595 C 141.141 192.852,141.481 193.429,141.897 193.877 C 142.378 194.396,142.588 194.893,142.477 195.244 C 142.358 195.619,142.452 195.796,142.773 195.796 C 143.031 195.796,143.243 196.005,143.243 196.261 C 143.243 196.516,143.581 197.038,143.994 197.421 C 144.714 198.089,145.062 199.030,144.448 198.651 C 144.270 198.541,144.232 198.679,144.353 198.993 C 144.477 199.317,144.601 199.380,144.675 199.159 C 144.821 198.721,145.345 198.678,145.345 199.104 C 145.345 199.272,145.818 199.869,146.396 200.431 C 146.974 200.992,147.447 201.540,147.447 201.648 C 147.447 201.756,147.616 202.030,147.823 202.256 C 148.029 202.482,148.536 203.137,148.949 203.712 C 149.362 204.287,150.071 204.978,150.526 205.248 C 150.980 205.519,151.351 205.916,151.351 206.131 C 151.351 206.388,151.612 206.474,152.102 206.380 L 152.853 206.236 152.853 194.992 C 152.853 187.573,152.751 183.811,152.553 183.934 C 152.369 184.047,152.252 183.587,152.252 182.750 C 152.252 181.734,152.136 181.381,151.802 181.381 C 151.367 181.381,151.226 181.046,151.329 180.255 C 151.356 180.049,151.237 179.880,151.064 179.880 C 150.892 179.880,150.751 179.610,150.751 179.279 C 150.751 178.949,150.616 178.679,150.450 178.679 C 150.285 178.679,150.150 178.341,150.150 177.928 C 150.150 177.461,149.980 177.177,149.700 177.177 C 149.449 177.177,149.249 176.910,149.249 176.577 C 149.249 176.246,149.114 175.976,148.949 175.976 C 148.784 175.976,148.649 175.503,148.649 174.925 C 148.649 174.347,148.514 173.874,148.348 173.874 C 148.183 173.874,148.048 173.536,148.048 173.123 C 148.048 172.710,147.913 172.372,147.748 172.372 C 147.583 172.372,147.447 172.102,147.447 171.772 C 147.447 171.438,147.247 171.171,146.997 171.171 C 146.663 171.171,146.547 170.821,146.547 169.820 C 146.547 169.077,146.411 168.468,146.246 168.468 C 146.073 168.468,145.946 167.518,145.946 166.216 L 145.946 163.964 149.074 163.964 C 151.309 163.964,152.238 163.857,152.328 163.589 C 152.482 163.128,154.955 165.625,154.955 166.241 C 154.955 166.475,155.090 166.667,155.255 166.667 C 155.420 166.667,155.566 167.038,155.579 167.492 C 155.592 167.947,155.671 168.149,155.754 167.943 C 155.995 167.347,156.456 167.507,156.456 168.186 C 156.456 168.526,156.592 168.721,156.757 168.619 C 156.922 168.517,157.057 168.653,157.057 168.923 C 157.057 169.477,157.752 170.270,158.237 170.270 C 158.414 170.270,158.559 170.473,158.559 170.721 C 158.559 170.968,158.694 171.171,158.859 171.171 C 159.052 171.171,159.159 174.374,159.159 180.180 C 159.159 185.986,159.266 189.189,159.459 189.189 C 159.655 189.189,159.760 193.443,159.760 201.351 C 159.760 209.973,159.856 213.514,160.089 213.514 C 160.270 213.514,161.001 214.026,161.713 214.653 C 162.426 215.280,163.595 216.075,164.312 216.419 C 170.211 219.249,171.647 219.820,172.868 219.820 L 173.574 219.820 173.574 194.612 C 173.574 178.131,173.470 169.341,173.273 169.219 C 173.108 169.117,172.973 168.762,172.973 168.429 C 172.973 168.097,172.762 167.614,172.505 167.357 C 172.248 167.100,172.109 166.704,172.196 166.478 C 172.282 166.251,172.216 166.066,172.049 166.066 C 171.384 166.066,170.159 164.519,170.602 164.239 C 170.901 164.049,170.914 163.972,170.646 163.969 C 170.439 163.966,170.270 163.753,170.270 163.496 C 170.270 163.238,170.134 163.112,169.968 163.215 C 169.599 163.443,168.769 162.664,168.769 162.090 C 168.769 161.862,168.498 161.385,168.168 161.030 C 167.838 160.676,167.568 160.185,167.568 159.940 C 167.568 159.695,167.434 159.412,167.271 159.311 C 167.100 159.206,167.050 159.327,167.153 159.594 C 167.251 159.850,167.182 160.060,166.999 160.060 C 166.816 160.060,166.667 159.722,166.667 159.309 C 166.667 158.896,166.532 158.559,166.366 158.559 C 166.201 158.559,166.066 158.221,166.066 157.808 C 166.066 157.395,165.931 157.057,165.766 157.057 C 165.601 157.057,165.465 156.719,165.465 156.306 C 165.465 155.893,165.601 155.556,165.766 155.556 C 165.931 155.556,166.066 155.317,166.066 155.026 C 166.066 154.735,166.404 154.243,166.817 153.933 C 167.230 153.623,167.568 153.148,167.568 152.877 C 167.568 152.606,167.838 152.190,168.168 151.952 C 168.498 151.714,168.769 151.346,168.769 151.135 C 168.769 150.924,168.904 150.751,169.069 150.751 C 169.234 150.751,169.369 150.480,169.369 150.150 C 169.369 149.816,169.570 149.550,169.820 149.550 C 170.088 149.550,170.270 149.273,170.270 148.865 C 170.270 148.489,170.541 147.986,170.871 147.748 C 171.201 147.510,171.471 147.156,171.471 146.963 C 171.471 146.769,171.674 146.533,171.922 146.438 C 172.170 146.343,172.372 146.058,172.372 145.805 C 172.372 145.552,172.508 145.345,172.673 145.345 C 172.838 145.345,172.973 145.019,172.973 144.620 C 172.973 144.220,173.101 143.849,173.258 143.794 C 173.420 143.737,173.571 141.281,173.609 138.077 C 173.646 134.988,173.788 132.530,173.925 132.614 C 174.062 132.699,174.174 131.814,174.174 130.648 C 174.174 129.482,174.064 128.529,173.928 128.529 C 173.594 128.529,173.575 118.653,173.909 118.447 C 174.055 118.357,174.174 118.148,174.174 117.983 C 174.174 117.817,174.063 117.751,173.927 117.835 C 173.792 117.919,173.690 117.129,173.702 116.080 C 173.714 115.030,173.823 114.328,173.944 114.518 C 174.109 114.777,174.166 114.774,174.170 114.507 C 174.172 114.311,174.039 114.066,173.874 113.964 C 173.446 113.699,173.476 105.501,173.906 105.235 C 174.138 105.092,174.115 104.952,173.831 104.772 C 173.607 104.630,173.563 104.512,173.734 104.509 C 173.906 104.507,174.045 104.234,174.045 103.904 C 174.045 103.574,173.939 103.303,173.810 103.303 C 173.680 103.303,173.574 101.614,173.574 99.550 C 173.574 96.164,173.912 94.652,174.263 96.471 C 174.334 96.843,174.411 96.447,174.434 95.592 C 174.461 94.564,174.322 93.884,174.024 93.586 C 173.776 93.339,173.574 93.049,173.574 92.943 C 173.574 92.134,171.645 91.551,171.006 92.167 M228.529 155.706 C 228.529 195.281,228.635 219.219,228.812 219.219 C 228.967 219.219,229.550 218.951,230.106 218.622 C 230.663 218.294,232.209 217.632,233.542 217.150 C 236.462 216.096,236.555 216.047,240.368 213.582 C 251.832 206.171,261.382 194.243,264.883 182.966 C 265.230 181.847,265.706 180.421,265.940 179.799 C 266.503 178.304,266.480 178.078,265.766 178.078 C 265.432 178.078,265.165 177.878,265.165 177.628 C 265.165 177.253,264.579 177.177,261.694 177.177 C 259.004 177.177,258.271 177.093,258.435 176.802 C 258.604 176.502,258.566 176.502,258.242 176.802 C 258.001 177.026,257.014 177.177,255.796 177.177 C 254.181 177.177,253.754 177.271,253.754 177.628 C 253.754 177.910,253.469 178.078,252.989 178.078 C 252.072 178.078,250.751 179.310,250.751 180.167 C 250.751 180.512,250.554 180.781,250.300 180.781 C 250.020 180.781,249.850 181.064,249.850 181.532 C 249.850 181.944,249.715 182.282,249.550 182.282 C 249.384 182.282,249.249 182.553,249.249 182.883 C 249.249 183.213,249.114 183.483,248.949 183.483 C 248.784 183.483,248.649 183.821,248.649 184.234 C 248.649 184.701,248.478 184.985,248.198 184.985 C 247.732 184.985,247.643 185.260,247.736 186.411 C 247.766 186.783,247.646 187.087,247.469 187.087 C 247.292 187.087,247.147 187.294,247.147 187.548 C 247.147 188.075,245.473 189.818,245.215 189.560 C 245.122 189.466,245.045 189.615,245.045 189.890 C 245.045 190.196,244.803 190.390,244.423 190.390 C 243.758 190.390,242.943 191.040,242.943 191.570 C 242.943 191.747,242.808 191.892,242.643 191.892 C 242.444 191.892,242.342 180.080,242.342 157.057 C 242.342 134.034,242.444 122.222,242.643 122.222 C 242.808 122.222,242.943 121.952,242.943 121.622 C 242.943 121.291,243.084 121.021,243.257 121.021 C 243.665 121.021,245.045 122.402,245.045 122.809 C 245.045 122.982,245.235 123.123,245.467 123.123 C 245.742 123.123,245.835 123.333,245.733 123.724 C 245.623 124.141,245.723 124.324,246.061 124.324 C 246.328 124.324,246.547 124.527,246.547 124.775 C 246.547 125.023,246.682 125.225,246.847 125.225 C 247.012 125.225,247.147 125.495,247.147 125.826 C 247.147 126.156,247.269 126.426,247.418 126.426 C 247.876 126.426,248.362 128.169,247.951 128.337 C 247.708 128.436,247.721 128.488,247.994 128.505 C 248.603 128.541,249.249 129.316,249.249 130.009 C 249.249 130.351,249.390 130.631,249.563 130.631 C 249.735 130.631,249.844 130.800,249.804 131.006 C 249.658 131.766,250.200 132.733,250.771 132.733 C 251.158 132.733,251.351 132.940,251.351 133.355 C 251.351 134.433,252.074 134.835,254.015 134.835 C 255.008 134.835,255.904 134.970,256.006 135.135 C 256.321 135.645,262.895 135.503,264.588 134.949 C 266.380 134.363,266.432 134.293,266.039 133.001 C 265.868 132.440,265.533 131.239,265.293 130.330 C 265.053 129.422,264.732 128.408,264.579 128.078 C 262.099 122.732,260.284 119.259,259.010 117.420 C 258.150 116.180,257.071 114.463,256.612 113.605 C 255.625 111.758,246.803 102.476,245.054 101.444 C 244.408 101.063,242.486 99.742,240.783 98.510 C 237.762 96.322,230.102 92.198,229.054 92.194 C 228.555 92.192,228.529 95.416,228.529 155.706 M159.159 131.178 C 159.159 139.127,159.094 140.501,158.713 140.648 C 158.368 140.780,158.309 141.129,158.453 142.181 C 158.609 143.318,158.559 143.544,158.149 143.544 C 157.812 143.544,157.658 143.806,157.658 144.378 C 157.658 144.868,157.410 145.391,157.057 145.646 C 156.727 145.884,156.456 146.251,156.456 146.463 C 156.456 146.674,156.254 146.847,156.006 146.847 C 155.756 146.847,155.556 147.114,155.556 147.447 C 155.556 147.839,155.355 148.048,154.980 148.048 C 154.663 148.048,154.359 148.173,154.304 148.326 C 154.249 148.479,152.346 148.648,150.075 148.701 L 145.945 148.799 145.946 147.523 C 145.946 146.821,146.081 146.246,146.246 146.246 C 146.413 146.246,146.547 145.445,146.547 144.444 C 146.547 143.043,146.647 142.643,146.997 142.643 C 147.323 142.643,147.447 142.307,147.447 141.424 C 147.447 140.688,147.566 140.278,147.748 140.390 C 147.933 140.505,148.050 139.967,148.053 138.982 C 148.056 137.842,148.140 137.516,148.348 137.838 C 148.569 138.180,148.641 138.053,148.644 137.312 C 148.647 136.776,148.784 136.336,148.949 136.336 C 149.114 136.336,149.249 135.998,149.249 135.586 C 149.249 135.118,149.419 134.835,149.700 134.835 C 149.950 134.835,150.150 134.568,150.150 134.234 C 150.150 133.904,150.285 133.634,150.450 133.634 C 150.616 133.634,150.751 133.296,150.751 132.883 C 150.751 132.470,150.886 132.132,151.051 132.132 C 151.216 132.132,151.351 131.794,151.351 131.381 C 151.351 130.914,151.522 130.631,151.802 130.631 C 152.052 130.631,152.252 130.364,152.252 130.030 C 152.252 129.700,152.387 129.429,152.553 129.429 C 152.718 129.429,152.853 129.150,152.853 128.807 C 152.853 128.143,153.503 127.327,154.033 127.327 C 154.210 127.327,154.356 126.956,154.359 126.502 C 154.363 125.858,154.428 125.775,154.655 126.126 C 154.902 126.509,154.946 126.496,154.950 126.040 C 154.953 125.745,155.575 124.900,156.334 124.163 C 157.092 123.426,157.531 122.812,157.310 122.799 C 157.006 122.781,157.000 122.738,157.282 122.624 C 157.489 122.541,157.658 122.343,157.658 122.185 C 157.658 121.534,158.373 121.093,158.775 121.495 C 159.070 121.790,159.159 124.029,159.159 131.178 M208.178 164.865 C 208.178 165.443,208.240 165.679,208.315 165.390 C 208.391 165.101,208.391 164.628,208.315 164.339 C 208.240 164.050,208.178 164.287,208.178 164.865 M174.264 188.889 C 174.264 189.797,174.320 190.169,174.389 189.715 C 174.458 189.261,174.458 188.517,174.389 188.063 C 174.320 187.609,174.264 187.980,174.264 188.889 M174.244 195.495 C 174.244 196.074,174.306 196.310,174.381 196.021 C 174.457 195.732,174.457 195.259,174.381 194.970 C 174.306 194.681,174.244 194.917,174.244 195.495 " stroke="none" fill="#2babe3" fill-rule="evenodd"></path></g></svg>